# xmcd
#
# Track frame offsets:
#	150
#	17623
#	34447
#	48268
#	61777
#	77800
#	95095
#	110663
#	128190
#	147139
#	164082
#	178314
#	194966
#	208347
#	224871
#	243056
#	257400
#	273088
#	288536
#
# Disc length: 4104 seconds
#
# Revision: 1
# Processed by: cddbd v1.5.2PL0 Copyright (c) Steve Scherf et al.
# Submitted via: audiograbber 1.83.01
#
DISCID=30100613
DTITLE=Various Artist - Hott Country 152
DYEAR=2008
DGENRE=Country
TTITLE0=Taylor Swift - Love Story
TTITLE1=Keith Anderson - Somebody Needs A Hug
TTITLE2=Jake Owen - Dont Think I Cant Love You
TTITLE3=George Owen - Just Like You
TTITLE4=Bruce Lee - Upper Middle Class White Trash
TTITLE5=Brad Johner - Other Side Of The Radio
TTITLE6=Jypsi - I Don't Love Like That
TTITLE7=Rascal Flatts - Here
TTITLE8=Glen Campbell - All I Want Is You
TTITLE9=Jaydee Bixby - Boys In The  Band
TTITLE10=Sara Evans - Low
TTITLE11=RandyTravis - Faith In You
TTITLE12=Chris Cagle - Never Ever Gone
TTITLE13=Jessica Simpson - Remember That
TTITLE14=Billy Ray Cyrus - Somebody SAid A Prayer
TTITLE15=Josh Gracin - Unbelievable ( Anne Marie )
TTITLE16=Paul Brandt - Virtual Life
TTITLE17=J.R. Vautour - You Were There
TTITLE18=Reba McEntire and Linda Davis - Does He Love You
EXTD=October 2008
EXTT0=
EXTT1=
EXTT2=
EXTT3=
EXTT4=
EXTT5=
EXTT6=
EXTT7=
EXTT8=
EXTT9=
EXTT10=
EXTT11=
EXTT12=
EXTT13=
EXTT14=
EXTT15=
EXTT16=
EXTT17=
EXTT18=
PLAYORDER=
